<?xml version="1.0" encoding="utf-8"?>
<svg version="1.1" id="ar_1_" xmlns="http://www.w3.org/2000/svg" xmlns:xlink="http://www.w3.org/1999/xlink" x="0px" y="0px"
	 viewBox="0 0 186 186" style="enable-background:new 0 0 186 186;" xml:space="preserve">
<style type="text/css">
	.st0{opacity:0.100;}
	.st1{fill-rule:evenodd;clip-rule:evenodd;fill:#FFFFFF;}
</style>
<g id="a" class="st0">
	<g>
		<path class="st1" d="M93,2C42.7,2,2,42.7,2,93s40.7,91,91,91s91-40.7,91-91S143.3,2,93,2z M93.5,176.9c-46,0-83.4-37.3-83.4-83.4
			c0-46,37.3-83.4,83.4-83.4c46,0,83.4,37.3,83.4,83.4C176.9,139.5,139.5,176.9,93.5,176.9z"/>
	</g>
</g>
<g id="b">
	<g>
		<path class="st1" d="M4,93H0c0,51.4,41.6,93,93,93v-4C43.8,182,4,142.2,4,93z M93,0v4c49.2,0,89,39.8,89,89h4
			C186,41.6,144.4,0,93,0z"/>
	</g>
</g>
</svg>
