<?xml version="1.0" encoding="utf-8"?>
<!-- Generator: Adobe Illustrator 17.1.0, SVG Export Plug-In . SVG Version: 6.00 Build 0)  -->
<!DOCTYPE svg PUBLIC "-//W3C//DTD SVG 1.1//EN" "http://www.w3.org/Graphics/SVG/1.1/DTD/svg11.dtd">
<svg version="1.1" id="girl-avatar" xmlns="http://www.w3.org/2000/svg" xmlns:xlink="http://www.w3.org/1999/xlink" x="0px"
	 y="0px" viewBox="0 0 58 58" enable-background="new 0 0 58 58" xml:space="preserve">
<g>
	<rect fill="#C0DFCF" width="58" height="58"/>
	<g>
		<g>
			<path fill="#FBD0C4" d="M42.5444,27.0693c-2.5571-1.7451-3.768-4.7207-4.3017-6.5986
				c-3.6553,3.6758-7.4927,5.9824-11.0498,7.4121c-4.5821,1.8379-8.6978,2.2276-11.3501,2.2276
				c-1.1099,0-1.9629-0.0674-2.4888-0.125c1.377,8.3095,7.8462,17.0292,15.2598,17.0292c7.9218,0,14.999-10.4316,15.4966-19.1123
				C43.5386,27.6787,43.019,27.3945,42.5444,27.0693z"/>
			<path fill="#FFFFFF" d="M22.0093,48.9004c-5.7188-1.2627-10.272-2.5274-12.5196-6.2783
				c-2.2407-3.7344-2.0273-9.9551,0.6729-19.5684c1.9209-6.8398,5.3931-11.5039,10.3218-13.8623
				c2.4575-1.1777,5.2871-1.7744,8.4077-1.7744c5.5903,0,10.2515,1.9267,10.4477,2.0088
				c0.1021,0.0381,11.6451,4.6172,10.1114,22.2763c-0.0108,0.1348-1.2002,14.0918-12.3379,17.086l-0.5654,0.1533v-3.6279
				l0.165-0.1338c5.167-4.1709,8.7739-11.6738,8.7739-18.2422c0-0.2461-0.2002-0.4463-0.4487-0.4463
				c-0.0737,0-0.146,0.0195-0.2168,0.0596l-0.1934,0.1103l-0.2041-0.0879c-0.4848-0.208-0.9424-0.4707-1.3608-0.7851
				c-1.7149-1.291-2.6958-3.2959-3.2188-4.751c-0.4936-1.3799-0.6474-2.4512-0.6494-2.4609
				c-0.0102-0.0362-0.0141-0.0518-0.0171-0.0684c-0.019-0.0498-0.0263-0.0654-0.0341-0.082l-0.0479-0.0703l-0.0454-0.0498
				l-0.019-0.0137c-0.045-0.0303-0.0582-0.04-0.0709-0.0459L38.8765,18.21l-0.0791-0.0166l-0.1265-0.4463l0.041,0.4404l0.0181-0.002
				l-0.0171,0.004v0.0039l-0.0259,0.0019l-0.02,0.0039c-0.0591,0.0166-0.0732,0.0205-0.0859,0.0264
				c-0.0523,0.0244-0.0665,0.0342-0.0801,0.042l-0.1123,0.0967c-0.3824,0.4257-0.8257,0.8847-1.3687,1.415
				c-7.9419,7.7949-16.8081,8.958-21.3872,8.958c-0.3135,0-0.6025-0.0039-0.8642-0.0156c-1.1172-0.0381-1.7701-0.1377-1.7759-0.1406
				l-0.2031-0.0157l-0.1602-0.1621c-0.0459-0.0625-0.1094-0.1123-0.1821-0.1445l-0.3306-0.1377l-0.207,0.29
				c-0.0445,0.0664-0.0962,0.168-0.0821,0.3008c0.6797,7.1055,5.0025,14.4102,10.5108,17.7598l0.2153,0.1308v2.419L22.0093,48.9004z
				 M27.103,18.8721c-0.1142,0-0.2212,0.042-0.3056,0.1201c-1.0332,0.9639-2.2696,1.9004-3.6753,2.7832
				c-1.9893,1.2539-4.3228,2.4014-6.9326,3.416c-3.252,1.2637-5.7657,1.8604-5.7896,1.8643
				c-0.2402,0.0586-0.3906,0.2988-0.3345,0.541c0.0469,0.2021,0.2261,0.3457,0.4356,0.3457c0.0342,0,0.0678-0.0039,0.102-0.0117
				c0.065-0.0157,0.3584-0.084,0.8247-0.212l0.522-0.1386l0.5444-0.1621c3.6094-1.0713,10.3467-3.502,14.9161-7.7705
				c0.1801-0.17,0.1904-0.4522,0.021-0.6348C27.3442,18.9229,27.228,18.8721,27.103,18.8721L27.103,18.8721z"/>
			<rect x="22.8491" y="45.4023" fill="#FBD0C4" width="13.0708" height="5.3829"/>
		</g>
		<g>
			<path fill="#43525B" d="M29.708,40.9326h-2.1875c-0.5522,0-1-0.4472-1-1c0-0.5527,0.4478-1,1-1h2.1875c0.5523,0,1,0.4473,1,1
				C30.708,40.4854,30.2603,40.9326,29.708,40.9326L29.708,40.9326z"/>
		</g>
		<g>
			<g>
				<polygon fill="#43525B" points="37.0981,51.041 35.0981,51.041 35.0981,45.0723 37.0981,45.0723 37.0981,51.041 				"/>
			</g>
			<g>
				<polygon fill="#43525B" points="24.0029,51.041 22.0029,51.041 22.0029,46.9355 24.0029,46.9355 24.0029,51.041 				"/>
			</g>
		</g>
		<g>
			<g>
				<path fill="#43525B" d="M22.0791,50.376c-0.0713,0-0.1436-0.0078-0.2158-0.0235c-5.9429-1.3086-11.0694-2.7373-13.6172-6.9863
					c-2.4932-4.1572-2.3325-10.543,0.521-20.706c2.04-7.2637,5.7749-12.2373,11.1016-14.7813
					c9.1469-4.3691,19.5712,0.0127,20.0097,0.2012c0.085,0.0312,12.646,4.9844,11.0156,23.7353
					c-0.0102,0.1397-1.2802,15.2852-13.6084,18.4326c-0.5376,0.1407-1.0795-0.1865-1.2163-0.7216
					c-0.1367-0.5352,0.1861-1.0791,0.7212-1.2159c10.9263-2.789,12.0996-16.5185,12.1104-16.6572
					c1.5014-17.2685-9.6568-21.6758-9.7696-21.7187C38.9917,9.876,29.0391,5.708,20.7192,9.6885
					c-4.7773,2.2871-8.1508,6.834-10.0263,13.5127c-2.6563,9.459-2.8887,15.54-0.7315,19.1367
					c2.1416,3.5713,6.6543,4.8115,12.3316,6.0615c0.5395,0.1192,0.8803,0.6524,0.7617,1.1914
					C22.9521,50.0576,22.5381,50.376,22.0791,50.376L22.0791,50.376z"/>
			</g>
			<g>
				<path fill="#43525B" d="M28.6138,48.9111c-8.8179,0-16.4258-10.6357-17.3365-20.1455
					c-0.0527-0.5498,0.3506-1.0381,0.9004-1.0908c0.5459-0.0693,1.0381,0.3506,1.0909,0.8994
					c0.8286,8.6563,7.5673,18.3369,15.3452,18.3369c8.1621,0,15.4243-11.1689,15.4243-19.9736c0-0.5527,0.4477-1,1-1
					c0.5522,0,1,0.4473,1,1C46.0381,36.8291,37.9976,48.9111,28.6138,48.9111L28.6138,48.9111z"/>
			</g>
			<g>
				<path fill="#43525B" d="M15.8379,30.2139c-1.7925,0-2.9214-0.1768-3.0816-0.2032c-0.5444-0.0908-0.9111-0.6054-0.8212-1.1494
					c0.0898-0.5449,0.6093-0.9092,1.1489-0.8232c0.1391,0.0244,13.8686,2.1103,24.9258-10.0713
					c0.3711-0.4102,1.0024-0.4395,1.4126-0.0684c0.4087,0.3711,0.4394,1.003,0.0678,1.4121
					C30.8145,28.8682,20.7915,30.2139,15.8379,30.2139L15.8379,30.2139z"/>
			</g>
			<g>
				<path fill="#43525B" d="M10.5,28.4941c-0.4541,0-0.8652-0.3115-0.9727-0.7734c-0.1254-0.5371,0.209-1.0752,0.7466-1.2002
					c0.1021-0.0244,10.271-2.4443,16.1475-7.9316c0.4043-0.377,1.0366-0.3555,1.4136,0.0478
					c0.3769,0.4033,0.3549,1.0362-0.0484,1.4131c-6.2724,5.8574-16.6216,8.3164-17.0591,8.418
					C10.6514,28.4863,10.5752,28.4941,10.5,28.4941L10.5,28.4941z"/>
			</g>
			<g>
				<path fill="#43525B" d="M44.439,28.0693c-0.1211,0-0.2447-0.0214-0.3643-0.0693c-5.2705-2.0635-6.2749-8.9336-6.3154-9.2246
					c-0.0752-0.5469,0.3061-1.0498,0.8525-1.126c0.5459-0.0771,1.0518,0.3047,1.1284,0.8516
					c0.0088,0.0595,0.8921,6.0029,5.064,7.6377c0.5142,0.2011,0.7676,0.7812,0.5664,1.2949
					C45.2163,27.8281,44.8389,28.0693,44.439,28.0693L44.439,28.0693z"/>
			</g>
		</g>
		<g>
			<path fill="#FFA8A6" d="M44.1284,19.291c-0.5229-1.1855-1.7021-2.0146-3.0805-2.0146c-1.8462,0-3.1807,1.5341-3.3531,3.3564
				c0,0-0.0898,0.4522,0.1074,1.2695c0.2759,1.1114,0.9151,2.0918,1.771,2.8487l4.5552,3.9209l4.4751-3.9209
				c0.8569-0.7569,1.4956-1.7373,1.7691-2.8487c0.1928-0.8173,0.1088-1.2695,0.1088-1.2695
				c-0.1689-1.8223-1.5014-3.3564-3.3588-3.3564C45.749,17.2764,44.646,18.1055,44.1284,19.291z"/>
			<g>
				<path fill="#43525B" d="M44.1284,29.6719c-0.2324,0-0.4648-0.0811-0.6523-0.2422l-4.5552-3.9209
					c-1.0542-0.9317-1.7734-2.0928-2.0894-3.3652c-0.2075-0.8614-0.1596-1.4317-0.1289-1.6387
					c0.2437-2.4131,2.1065-4.2285,4.3453-4.2285c1.1684,0,2.2646,0.4687,3.0678,1.2636c0.7837-0.8017,1.8467-1.2636,3.0069-1.2636
					c2.2939,0,4.1254,1.7929,4.3545,4.2636c0.0078,0.0205,0.0986,0.6192-0.1314,1.5918c-0.3154,1.2832-1.0342,2.4444-2.0801,3.3692
					l-4.478,3.9228C44.5991,29.5889,44.3638,29.6719,44.1284,29.6719L44.1284,29.6719z M38.6758,20.8262
					c0.0014,0-0.0308,0.3056,0.0986,0.8418c0.2163,0.8711,0.7222,1.6806,1.4614,2.334l3.8868,3.3457l3.8217-3.3487
					c0.7369-0.6504,1.2417-1.459,1.4571-2.3359c0.1313-0.5567,0.0927-0.8701,0.0927-0.8731
					c-0.1211-1.2822-0.9692-2.5136-2.3715-2.5136c-0.9141,0-1.691,0.5293-2.0777,1.415c-0.1587,0.3633-0.5176,0.5986-0.9145,0.5996
					c-0.0005,0-0.0015,0-0.0015,0c-0.3965,0-0.7554-0.2334-0.9155-0.5967c-0.3799-0.8613-1.23-1.4179-2.1655-1.4179
					c-1.3956,0-2.2422,1.2324-2.3575,2.4502c-0.0034,0.0341-0.0083,0.0673-0.0146,0.1005
					C38.6758,20.8262,38.6758,20.8262,38.6758,20.8262L38.6758,20.8262z"/>
			</g>
		</g>
	</g>
</g>
</svg>
